<mxfile host="app.diagrams.net" modified="2024-01-01T23:54:41.711Z" agent="Mozilla/5.0 (Macintosh; Intel Mac OS X 10_15_7) AppleWebKit/537.36 (KHTML, like Gecko) Chrome/120.0.0.0 Safari/537.36" version="22.1.16" etag="O20KtokY7JEldaxuwHCw" type="github">
  <diagram name="Page-1" id="yNOJNv2ooYZI7Zn9DDqf">
    <mxGraphModel>
      <root>
        <mxCell id="0" />
        <mxCell id="1" parent="0" />
      </root>
    </mxGraphModel>
  </diagram>
</mxfile>
